<?xml version="1.0" encoding="iso-8859-1"?>
<!-- Generator: Adobe Illustrator 16.0.0, SVG Export Plug-In . SVG Version: 6.00 Build 0)  -->
<!DOCTYPE svg PUBLIC "-//W3C//DTD SVG 1.1//EN" "http://www.w3.org/Graphics/SVG/1.1/DTD/svg11.dtd">
<svg version="1.1" id="Capa_1" xmlns="http://www.w3.org/2000/svg" xmlns:xlink="http://www.w3.org/1999/xlink" x="0px" y="0px"
	 width="585.918px" height="585.918px" viewBox="0 0 585.918 585.918" style="enable-background:new 0 0 585.918 585.918;"
	 xml:space="preserve">
<g>
	<path d="M143.668,254.037c-4.876,0.108-8.155,0.659-9.863,1.187v32.479c2.021,0.501,4.52,0.671,7.971,0.687
		c12.864,0.076,20.932-6.72,20.932-18.231C162.708,259.819,155.763,253.793,143.668,254.037z"/>
	<path d="M57.068,255.504c-5.079,0.107-7.95,0.627-9.444,0.956v28.378l8.203,0.027c10.554,0.026,16.885-5.869,16.885-15.05
		C72.712,260.163,66.804,255.455,57.068,255.504z"/>
	<path d="M357.396,535.335c0.776,0.052,1.543,0.114,2.33,0.114h177.39c20.744,0,37.627-16.883,37.627-37.627V86.604
		c0-20.746-16.883-37.628-37.627-37.628h-177.39c-0.787,0-1.554,0.074-2.33,0.124V0L11.176,46.208v492.308l346.22,47.402V535.335z
		 M359.726,70.479h177.39c8.892,0,16.125,7.232,16.125,16.125v411.218c0,8.892-7.233,16.127-16.125,16.127h-177.39
		c-0.798,0-1.563-0.117-2.33-0.231v-91.414c20.777,12.813,44.085,18.531,69.723,17.381c62.505-2.783,115.477-53.618,115.666-123.755
		c-0.925-66.887-54.244-119.164-118.118-120.792c-25.139-0.635-47.555,5.299-67.271,17.476V70.72
		C358.162,70.607,358.928,70.479,359.726,70.479z M364.313,280.075c0.363,2.103,1.774,4.65,3.512,5.773
		c16.446,10.743,34.237,18.629,53.141,23.872c3.401,0.945,7.149,0.594,10.729,0.852c0.231-0.39,0.452-0.784,0.684-1.171
		c-0.662-1.397-1.03-3.062-2.038-4.143c-2.415-2.578-3.67-5.674-3.59-8.987c0.109-5.112-3.035-7.569-6.978-9.042
		c-5.999-2.236-12.278-3.699-18.304-5.882c-8.189-2.95-16.614-5.596-24.263-9.648c-7.266-3.832-8.819-8.326-6.846-16.168
		c2.026-8.021,4.319-15.992,6.729-23.905c1.942-6.413,9.061-11.686,15.764-11.255c7.881,0.503,15.713,1.719,23.571,2.564
		c5.999,0.64,11.689-1.125,17.527-2.071c10.437-1.688,21.071-1.649,29.354,6.173c3.317,3.129,5.418,7.798,7.36,12.105
		c3.921,8.648,7.243,17.575,11.013,26.289c4.094,9.451,3.444,19.003,1.123,28.65c-0.131,0.539-0.393,1.061-0.431,1.597
		c-0.073,1.013-0.021,2.026-0.021,3.601c5.617-2.33,7.098-6.96,8.547-11.748c8.824,2.371,16.604,6.982,23.948,12.043
		c6.677,4.592,6.939,11.663,5.259,19.243c-2.623,11.853-9.873,19.581-20.315,24.884c-7.999,4.072-15.927,8.599-25.061,9.354
		c-7.328,0.613-14.74,0.534-22.11,0.361c-5.007-0.109-10.016-0.813-15.008-1.397c-11.05-1.28-21.79-3.927-32.152-7.931
		c-7.948-3.065-16.074-5.891-23.543-9.879c-8.447-4.516-16.646-9.564-24.521-15.034v-51.75c1.48-0.091,2.966-0.175,4.451-0.272
		c2.143-0.137,3.249,0.166,2.604,3.084C363.747,273.399,363.758,276.888,364.313,280.075z M357.396,364.844
		c1.187,0.2,2.404,0.242,3.68,0.021c1.322-0.241,3.06-1.376,3.49-2.52c0.441-1.145-0.031-3.591-0.924-4.147
		c-2.577-1.606-4.473-3.78-6.246-6.048v-22.74c2.587-0.918,4.966-0.437,6.835,1.423c3.296,3.276,6.492,6.687,9.349,10.346
		c2.116,2.72,4.373,4.143,7.622,2.642c2.358-1.086,3.911-0.473,5.606,1.29c4.415,4.615,8.677,9.471,13.649,13.419
		c2.64,2.1,6.571,3.35,9.999,3.521c6.824,0.368,13.701-0.419,20.567-0.419c2.95,0,5.9,0.808,8.866,1.159
		c1.386,0.152,3.009,0.562,4.163,0.043c5.386-2.389,10.771-0.773,16.184-0.473c2.74,0.141,5.497,0.021,8.258,0
		c1.122-0.01,2.246-0.08,3.371-0.111c2.072-0.078,2.603,1.155,2.235,2.852c-1.523,7.129-3.051,14.268-4.757,21.359
		c-0.319,1.312-1.427,2.467-2.277,3.612c-5.376,7.212-10.835,14.361-16.127,21.633c-0.725,1.013-0.65,2.592-0.95,3.921
		c1.475,0.221,3.181,1.039,4.373,0.556c2.498-1.028,5.134-2.329,6.998-4.22c6.11-6.206,13.26-10.762,21.071-14.405
		c2.355-1.102,3.836-2.54,3.049-5.469c-0.13-0.483,1.055-1.906,1.618-1.896c7.097,0.078,14.177,0.348,21.27,0.529
		c2.456,0.064,4.913,0.011,8.153,0.011c-27.197,33.97-62.326,50.396-104.489,47.142c-20.921-1.618-39.083-7.472-54.647-17.114
		v-55.917H357.396z M75.686,343.436c-1.554-3.028-3.821-11.699-6.64-24.697c-2.521-13.088-6.573-16.708-15.131-17.007l-6.284-0.106
		v40.437l-20.178-0.997v-99.808c6.478-1.417,16.249-2.659,27.286-3.042c13.89-0.483,23.801,1.522,30.694,7.273
		c5.792,4.887,9.002,12.257,9.002,22.079c0,13.609-8.858,22.893-17.173,26.113v0.473c6.729,3.042,10.48,10.187,12.947,20.014
		c3.055,12.104,6.135,26.163,8.042,30.373L75.686,343.436z M177.295,296.334c-8.569,8.121-21.049,11.548-35.36,11.27
		c-3.144-0.067-5.95-0.283-8.131-0.649v39.322l-23.061-1.124v-106.63c7.084-1.528,17.179-2.837,31.659-3.345
		c14.961-0.514,25.841,2.124,33.242,7.94c7.149,5.554,12.008,14.945,12.008,26.158C187.648,280.484,183.963,289.972,177.295,296.334
		z M309.059,354.871l-1.999-47.695c-0.595-14.956-1.192-33.036-1.192-51.111l-0.594,0.01c-4.145,15.884-9.643,33.499-14.713,47.881
		l-15.77,47.24l-22.286-1.06l-13.161-46.604c-3.976-13.938-8.11-30.783-10.966-46.159l-0.354,0.011
		c-0.709,15.918-1.247,34.07-2.133,48.724l-2.129,44.579l-24.554-1.213l7.402-115.661l36.008-1.226l12.111,39.655
		c3.903,13.9,7.811,28.957,10.622,43.162l0.565,0.021c3.58-13.959,7.94-29.955,12.129-43.512l13.89-41.008l39.771-1.35
		l7.638,126.778L309.059,354.871z"/>
	<path d="M418.488,248.226c-5.018-1.354-9.921-2.811-15.366-1.722c-4.34,0.882-8.902,0.748-12.593-2.762
		c-1.312-1.247-3.087-1.994-5.232-3.338c-1.192,1.478-2.961,2.719-3.271,4.252c-0.762,3.821-0.64,8.095,3.098,10.278
		c3.306,1.929,6.682,6.203,11.354,2.003c0.836-0.755,2.2-1.089,3.365-1.268c3.623-0.564,7.287-0.826,10.887-1.466
		c2.594-0.441,5.155-1.166,7.627-2.048c0.678-0.241,1.257-1.431,1.393-2.268C419.82,249.386,419.044,248.381,418.488,248.226z"/>
	<path d="M446.609,232.654c-1.885,1.617-3.523,3.032-5.455,4.693c0.924,0.575,1.47,1.231,1.974,1.197
		c3.323-0.21,6.721-0.241,9.923-1.011c1.963-0.472,4.271-1.354,4.22-4.438c-0.052-3.173-1.795-4.902-4.357-5.939
		c-1.701-0.696-3.605-0.958-5.448-1.21c-4.326-0.588-8.536-0.107-12.567,1.74C438.793,229.412,443.569,228.578,446.609,232.654z"/>
	<path d="M428.86,382.714c0.21,0.01,0.39,0.23,0.6,0.304c3.29,1.153,6.593,2.299,9.89,3.454c3.521-0.294,6.614-1.146,7.811-4.504
		c0.504-1.428-0.353-3.502-1.06-5.087c-0.147-0.34-2.846-0.221-3.487,0.483c-2.226,2.456-4.303,2.179-6.824,0.649
		c-1.396-0.85-2.992-1.421-4.565-1.904c-2.395-0.771-5.262,1.034-5.838,3.632C424.708,382.797,426.918,382.608,428.86,382.714z"/>
</g>
<g>
</g>
<g>
</g>
<g>
</g>
<g>
</g>
<g>
</g>
<g>
</g>
<g>
</g>
<g>
</g>
<g>
</g>
<g>
</g>
<g>
</g>
<g>
</g>
<g>
</g>
<g>
</g>
<g>
</g>
</svg>
